<svg width="53" height="50" viewBox="0 0 53 50" fill="none" xmlns="http://www.w3.org/2000/svg">
<path d="M26.4512 15.2119C21.2061 15.2119 16.9389 19.3511 16.9389 24.4388C16.9389 29.5266 21.2061 33.6658 26.4512 33.6658C31.6963 33.6658 35.9635 29.5266 35.9635 24.4388C35.9635 19.3511 31.6963 15.2119 26.4512 15.2119ZM26.4512 32.1695C22.0565 32.1695 18.4814 28.7017 18.4814 24.4388C18.4814 20.176 22.0565 16.7082 26.4512 16.7082C30.8459 16.7082 34.421 20.176 34.421 24.4388C34.421 28.7017 30.8459 32.1695 26.4512 32.1695Z" fill="#D9D9D9"/>
<path d="M49.7049 20.6987L43.5512 19.7955C43.2129 18.6892 42.7558 17.6149 42.1881 16.591L45.8779 11.7366C46.1041 11.4389 46.0722 11.0254 45.8028 10.7636L41.0641 6.16755C40.7942 5.9062 40.3679 5.87478 40.061 6.09423L35.0724 9.66132C34.0122 9.10271 32.8974 8.65284 31.7477 8.31917L30.8217 2.38201C30.7646 2.01593 30.4407 1.74561 30.0592 1.74561H23.3584C22.9769 1.74561 22.653 2.01593 22.5959 2.38201L21.6698 8.31917C20.5201 8.65284 19.4054 9.10321 18.3452 9.66132L13.3566 6.09423C13.0496 5.87478 12.6234 5.9057 12.3534 6.16755L7.61529 10.7636C7.34586 11.0249 7.31346 11.4389 7.5397 11.7366L11.2294 16.591C10.6618 17.6149 10.2047 18.6892 9.86636 19.7955L3.71267 20.6987C3.33526 20.7541 3.05658 21.0683 3.05658 21.4384V27.9381C3.05658 28.3082 3.33526 28.6224 3.71216 28.6778L9.89618 29.5855C10.2381 30.6798 10.6942 31.7396 11.2572 32.7481L7.53919 37.6399C7.31295 37.9376 7.34534 38.3511 7.61477 38.6129L12.3529 43.2089C12.6224 43.4708 13.0491 43.5017 13.3561 43.2823L18.4156 39.6643C19.4501 40.203 20.5361 40.6389 21.6549 40.9646L22.5954 46.9945C22.6524 47.3606 22.9764 47.6309 23.3579 47.6309H30.0587C30.4402 47.6309 30.7641 47.3606 30.8212 46.9945L31.7616 40.9646C32.8805 40.6389 33.9664 40.203 35.0009 39.6643L40.0605 43.2823C40.3674 43.5017 40.7937 43.4703 41.0636 43.2089L45.8023 38.6129C46.0717 38.3516 46.1041 37.9376 45.8774 37.6399L42.1593 32.7481C42.7229 31.7396 43.179 30.6798 43.5204 29.5855L49.7044 28.6778C50.0813 28.6224 50.36 28.3082 50.36 27.9381V21.4384C50.3605 21.0688 50.0818 20.7541 49.7049 20.6987ZM48.818 27.2947L42.8005 28.178C42.4982 28.2224 42.2514 28.4359 42.1712 28.7217C41.8092 30.0159 41.2724 31.2628 40.5757 32.4284C40.4214 32.6863 40.4394 33.0079 40.6219 33.2479L44.2418 38.0104L40.4415 41.6967L35.5167 38.175C35.2699 37.999 34.9398 37.9805 34.675 38.1286C33.4764 38.7965 32.1976 39.3102 30.8726 39.6548C30.577 39.7321 30.3559 39.9715 30.3101 40.2658L29.3949 46.1356H24.0207L23.1054 40.2658C23.0597 39.972 22.8386 39.7321 22.5429 39.6548C21.2179 39.3102 19.9391 38.7965 18.7406 38.1286C18.4758 37.981 18.1451 37.9995 17.8989 38.175L12.9741 41.6967L9.17376 38.0104L12.7936 33.2479C12.9756 33.0079 12.9941 32.6863 12.8399 32.4284C12.1431 31.2633 11.6063 30.0159 11.2444 28.7217C11.1641 28.4354 10.9173 28.2224 10.615 28.178L4.59757 27.2947V22.0818L10.5878 21.203C10.8916 21.1586 11.1395 20.9431 11.2181 20.6548C11.5745 19.3501 12.1102 18.0892 12.8116 16.9072C12.9643 16.6498 12.9453 16.3291 12.7638 16.0902L9.17376 11.3666L12.9741 7.68027L17.8294 11.1521C18.0768 11.3286 18.4084 11.3466 18.6748 11.1965C19.8959 10.5082 21.2025 9.98102 22.5568 9.6294C22.853 9.55259 23.0741 9.31269 23.1198 9.01842L24.0207 3.24137H29.3949L30.2957 9.01842C30.3415 9.31269 30.5626 9.55259 30.8587 9.6294C32.2131 9.98102 33.5191 10.5082 34.7408 11.1965C35.0066 11.3471 35.3382 11.3286 35.5861 11.1521L40.4415 7.68027L44.2418 11.3666L40.6518 16.0902C40.4703 16.3291 40.4512 16.6498 40.604 16.9072C41.3048 18.0892 41.8411 19.3501 42.1974 20.6548C42.2761 20.9431 42.5239 21.1581 42.8278 21.203L48.818 22.0818V27.2947Z" fill="#D9D9D9"/>
</svg>
