<svg width="63" height="60" viewBox="0 0 63 60" fill="none" xmlns="http://www.w3.org/2000/svg">
<path d="M35.8119 46.2484L37.5119 51.8602C37.0552 52.3819 36.7684 53.0477 36.7684 53.7838C36.7684 55.4328 38.1535 56.774 39.856 56.774C41.3657 56.774 42.6182 55.7085 42.876 54.3114H48.8381C49.0137 55.7991 50.3049 56.9628 51.8852 56.9628C53.5864 56.9628 54.9703 55.6216 54.9703 53.9731C54.9703 52.3223 53.5864 50.9788 51.8852 50.9788C50.7291 50.9788 49.732 51.6077 49.2046 52.5248H42.6354C42.1448 51.5052 41.0876 50.793 39.856 50.793C39.6067 50.793 39.3679 50.8293 39.1358 50.8835L38.1449 47.6128H53.5379V47.6134C53.9818 47.6134 54.3618 47.3067 54.4435 46.8838L57.2296 32.4116C57.28 32.1508 57.2075 31.881 57.0332 31.6773C56.8582 31.4725 56.5985 31.3546 56.3246 31.3546H32.6163L31.6033 28.4162C31.4774 28.0523 31.1262 27.8063 30.7302 27.8063H26.9587C26.4497 27.8063 26.0378 28.2059 26.0378 28.6996C26.0378 29.1933 26.4497 29.593 26.9587 29.593H30.0671L35.8119 46.2484ZM55.2159 33.1412L52.7729 45.8268H37.6083L37.5696 45.7148L37.4911 45.4563C37.4757 45.4051 37.4542 45.3575 37.4303 45.3116L33.2321 33.1412H55.2159ZM51.8852 52.7666C52.5709 52.7666 53.1284 53.3085 53.1284 53.9743C53.1284 54.6372 52.5709 55.1773 51.8852 55.1773C51.2012 55.1773 50.6444 54.6378 50.6444 53.9743C50.6444 53.3085 51.2006 52.7666 51.8852 52.7666ZM41.0888 53.7844C41.0888 54.4478 40.5356 54.9879 39.8554 54.9879C39.1684 54.9879 38.6097 54.4478 38.6097 53.7844C38.6097 53.1209 39.1684 52.5808 39.8554 52.5808C40.535 52.5802 41.0888 53.1203 41.0888 53.7844Z" fill="black"/>
<path d="M26.753 41.4906H7.16736V14.1048H50.4393V26.916C50.4393 27.4097 50.8519 27.8093 51.3602 27.8093C51.8686 27.8093 52.2812 27.4097 52.2812 26.916V3.48331C52.2812 2.98961 51.8686 2.59 51.3602 2.59H6.24643C5.73746 2.59 5.3255 2.98961 5.3255 3.48331V42.3839C5.3255 42.8771 5.73746 43.2773 6.24643 43.2773H26.753C27.262 43.2773 27.674 42.8771 27.674 42.3839C27.674 41.8908 27.262 41.4906 26.753 41.4906ZM50.4393 4.37662V12.3181H7.16736V4.37662H50.4393Z" fill="black"/>
<path d="M18.5875 9.05041H22.2626C22.7716 9.05041 23.1835 8.65081 23.1835 8.1571C23.1835 7.6634 22.7716 7.26379 22.2626 7.26379H18.5875C18.0785 7.26379 17.6666 7.6634 17.6666 8.1571C17.6666 8.65081 18.0785 9.05041 18.5875 9.05041Z" fill="black"/>
<path d="M11.0298 9.05041H14.7049C15.2138 9.05041 15.6258 8.65081 15.6258 8.1571C15.6258 7.6634 15.2138 7.26379 14.7049 7.26379H11.0298C10.5208 7.26379 10.1088 7.6634 10.1088 8.1571C10.1088 8.65081 10.5208 9.05041 11.0298 9.05041Z" fill="black"/>
</svg>
