<svg width="63" height="60" viewBox="0 0 63 60" fill="none" xmlns="http://www.w3.org/2000/svg">
<path d="M60.4668 24.2975C60.2922 24.0724 60.0182 23.9401 59.7282 23.9401H54.4836V18.3579C54.4836 17.8623 54.0696 17.4607 53.5593 17.4601L26.1596 17.4272L21.73 13.1306C21.5566 12.9624 21.3209 12.8678 21.0754 12.8678H7.89903C7.38814 12.8678 6.97351 13.27 6.97351 13.7656V46.0848C6.97351 46.5803 7.38814 46.9825 7.89903 46.9825H53.4316C53.8826 46.9825 54.2578 46.6683 54.3398 46.2536C54.3836 46.1847 54.4244 46.1135 54.4484 46.0321L60.6186 25.0845C60.6976 24.814 60.642 24.5225 60.4668 24.2975ZM20.6922 14.6633L25.1211 18.9594C25.2939 19.1276 25.529 19.2215 25.7745 19.2221L52.6326 19.2545V23.9401H14.0692C13.6558 23.9401 13.293 24.2059 13.1794 24.5913L8.82455 39.3756V14.6633H20.6922ZM52.772 45.187H9.03804L14.7676 25.7357H58.5016L52.772 45.187Z" fill="black"/>
</svg>
