<?xml version="1.0" encoding="utf-8"?>
<!-- Generator: Adobe Illustrator 25.2.0, SVG Export Plug-In . SVG Version: 6.00 Build 0)  -->
<svg version="1.1" id="Слой_1" xmlns="http://www.w3.org/2000/svg" xmlns:xlink="http://www.w3.org/1999/xlink" x="0px" y="0px"
	 viewBox="0 0 53 50" style="enable-background:new 0 0 53 50;" xml:space="preserve">
<style type="text/css">
	.st0{fill:#D9D9D9;stroke:#1D1D1B;stroke-miterlimit:10;}
</style>
<path class="st0" d="M26.5,15.2c-5.2,0-9.5,4.1-9.5,9.2c0,5.1,4.3,9.2,9.5,9.2s9.5-4.1,9.5-9.2C36,19.4,31.7,15.2,26.5,15.2z
	 M26.5,32.2c-4.4,0-8-3.5-8-7.7c0-4.3,3.6-7.7,8-7.7s8,3.5,8,7.7C34.4,28.7,30.8,32.2,26.5,32.2z"/>
<path class="st0" d="M49.7,20.7l-6.2-0.9c-0.3-1.1-0.8-2.2-1.4-3.2l3.7-4.9c0.2-0.3,0.2-0.7-0.1-1l-4.7-4.6c-0.3-0.3-0.7-0.3-1-0.1
	l-5,3.6c-1.1-0.6-2.2-1-3.3-1.3l-0.9-5.9c-0.1-0.4-0.4-0.6-0.8-0.6h-6.7c-0.4,0-0.7,0.3-0.8,0.6l-0.9,5.9c-1.1,0.3-2.3,0.8-3.3,1.3
	l-5-3.6c-0.3-0.2-0.7-0.2-1,0.1l-4.7,4.6c-0.3,0.3-0.3,0.7-0.1,1l3.7,4.9c-0.6,1-1,2.1-1.4,3.2l-6.2,0.9c-0.4,0.1-0.7,0.4-0.7,0.7
	v6.5c0,0.4,0.3,0.7,0.7,0.7l6.2,0.9c0.3,1.1,0.8,2.2,1.4,3.2l-3.7,4.9c-0.2,0.3-0.2,0.7,0.1,1l4.7,4.6c0.3,0.3,0.7,0.3,1,0.1
	l5.1-3.6c1,0.5,2.1,1,3.2,1.3l0.9,6c0.1,0.4,0.4,0.6,0.8,0.6h6.7c0.4,0,0.7-0.3,0.8-0.6l0.9-6c1.1-0.3,2.2-0.8,3.2-1.3l5.1,3.6
	c0.3,0.2,0.7,0.2,1-0.1l4.7-4.6c0.3-0.3,0.3-0.7,0.1-1l-3.7-4.9c0.6-1,1-2.1,1.4-3.2l6.2-0.9c0.4-0.1,0.7-0.4,0.7-0.7v-6.5
	C50.4,21.1,50.1,20.8,49.7,20.7z M48.8,27.3l-6,0.9c-0.3,0-0.5,0.3-0.6,0.5c-0.4,1.3-0.9,2.5-1.6,3.7c-0.2,0.3-0.1,0.6,0,0.8
	l3.6,4.8l-3.8,3.7l-4.9-3.5c-0.2-0.2-0.6-0.2-0.8,0c-1.2,0.7-2.5,1.2-3.8,1.5c-0.3,0.1-0.5,0.3-0.6,0.6l-0.9,5.9H24l-0.9-5.9
	c0-0.3-0.3-0.5-0.6-0.6c-1.3-0.3-2.6-0.9-3.8-1.5c-0.3-0.1-0.6-0.1-0.8,0L13,41.7L9.2,38l3.6-4.8c0.2-0.2,0.2-0.6,0-0.8
	c-0.7-1.2-1.2-2.4-1.6-3.7c-0.1-0.3-0.3-0.5-0.6-0.5l-6-0.9v-5.2l6-0.9c0.3,0,0.6-0.3,0.6-0.5c0.4-1.3,0.9-2.6,1.6-3.7
	c0.2-0.3,0.1-0.6,0-0.8l-3.6-4.7L13,7.7l4.9,3.5c0.2,0.2,0.6,0.2,0.8,0c1.2-0.7,2.5-1.2,3.9-1.6c0.3-0.1,0.5-0.3,0.6-0.6L24,3.2h5.4
	L30.3,9c0,0.3,0.3,0.5,0.6,0.6c1.4,0.4,2.7,0.9,3.9,1.6c0.3,0.2,0.6,0.1,0.8,0l4.9-3.5l3.8,3.7l-3.6,4.7c-0.2,0.2-0.2,0.6,0,0.8
	c0.7,1.2,1.2,2.4,1.6,3.7c0.1,0.3,0.3,0.5,0.6,0.5l6,0.9V27.3z"/>
</svg>
