<svg width="63" height="60" viewBox="0 0 63 60" fill="none" xmlns="http://www.w3.org/2000/svg">
<path d="M50.4415 33.7272C50.405 33.0444 50.3524 32.331 50.2751 31.5864C49.8105 27.1272 48.394 20.8668 44.2794 16.3614C40.6911 12.4332 35.6759 10.4418 29.3703 10.4418C26.2819 10.4418 23.4334 11.0778 20.9685 11.985C20.8652 12.0048 20.7699 12.0438 20.6815 12.0942C15.9359 13.9032 12.6724 16.6866 11.9697 17.7606C6.63712 22.143 3.60681 28.4532 3.60681 35.2908C3.60681 35.3664 3.61671 35.442 3.63588 35.5152C3.68722 35.7072 4.94908 40.2564 10.3961 42.645C17.9988 45.9786 27.6656 49.5552 37.9856 49.5552C40.0342 49.5552 42.1076 49.4148 44.1959 49.1028C57.6922 47.0904 59.4229 44.0634 59.4229 41.6508C59.4235 41.115 59.4235 39.4908 50.4415 33.7272ZM42.8858 17.55C49.3083 24.5754 48.7528 36.5658 48.5202 39.396L37.7097 42.018C37.8285 39.5124 37.9979 33.6264 37.3379 28.2678C36.5382 21.7806 34.4629 14.4858 26.0926 12.4962C27.1379 12.336 28.2309 12.2418 29.3703 12.2418C35.1186 12.2418 39.6662 14.0274 42.8858 17.55ZM21.3204 13.7676C29.9833 13.7946 34.2285 18.2046 35.4953 28.4808C36.1107 33.4794 35.9759 39.1014 35.8645 41.6856L32.5015 39.8382C32.7798 37.0332 33.5338 25.4814 27.8258 20.0214C24.2177 16.5708 20.4068 15.5364 17.4099 15.6768C18.514 15.0126 19.8297 14.3406 21.3204 13.7676ZM13.4369 18.9228C13.5025 18.876 13.565 18.828 13.6219 18.7806C13.805 18.6378 13.9856 18.4938 14.1736 18.3558C16.2928 17.0208 21.6019 16.5972 26.5237 21.303C31.4301 25.9962 30.9316 36.4158 30.6755 39.4038C28.2483 39.303 21.0885 38.835 15.2524 36.726C11.366 35.322 8.34372 32.9166 6.26413 29.5824C7.44681 25.4346 9.91362 21.7308 13.4369 18.9228ZM43.9144 47.3238C31.7889 49.1346 20.0394 44.8974 11.1612 41.0046C6.91052 39.1416 5.66413 35.7936 5.46372 35.1654C5.4699 34.1034 5.56454 33.0576 5.72599 32.0292C8.48537 35.6154 11.9975 37.4706 14.6054 38.4126C21.4392 40.8822 29.7179 41.1894 31.2619 41.2254L36.2579 43.9704C36.2641 43.974 36.2716 43.9746 36.2777 43.9782C36.3396 44.0106 36.4052 44.0376 36.4744 44.0556C36.4868 44.0586 36.4992 44.0592 36.5116 44.0616C36.5579 44.0718 36.6043 44.0814 36.6532 44.085C36.6736 44.0868 36.694 44.0874 36.7138 44.0874H36.7144C36.7144 44.0874 36.7144 44.0874 36.7151 44.0874C36.7157 44.0874 36.7163 44.0874 36.7163 44.0874C36.7874 44.0874 36.8561 44.0772 36.9223 44.0622C36.9278 44.061 36.934 44.0616 36.9396 44.0604L49.6076 40.9878C49.9806 40.8978 50.2571 40.5936 50.3035 40.2234C50.3165 40.1208 50.5175 38.4498 50.5064 35.9394C54.9371 38.8656 57.4058 41.016 57.5672 41.6514C57.5678 44.064 52.9738 45.9726 43.9144 47.3238Z" fill="black"/>
</svg>
