<svg width="63" height="60" viewBox="0 0 63 60" fill="none" xmlns="http://www.w3.org/2000/svg">
<path d="M39.3751 40.6995C38.8648 40.6995 38.4506 41.1013 38.4506 41.5964V49.794H8.27071V11.171H38.45V17.9869C38.45 18.4826 38.8642 18.8837 39.3745 18.8837C39.8849 18.8837 40.2991 18.4826 40.2991 17.9869V10.2741C40.2991 9.77848 39.8849 9.3773 39.3745 9.3773H7.34614C6.83516 9.3773 6.42157 9.77848 6.42157 10.2741V50.6903C6.42157 51.1853 6.83516 51.5871 7.34614 51.5871H39.3745C39.8849 51.5871 40.2991 51.1853 40.2991 50.6903V41.5964C40.2997 41.1007 39.8855 40.6995 39.3751 40.6995Z" fill="black"/>
<path d="M56.2338 11.7671C56.1845 11.5339 56.0415 11.3294 55.8369 11.1985L51.1949 8.22935C50.9903 8.09901 50.7419 8.05297 50.499 8.09961C50.2586 8.14744 50.0484 8.28615 49.9134 8.48525L46.5153 13.4938C46.4802 13.5458 46.4512 13.6002 46.4284 13.6558L28.4523 40.1142C28.4147 40.1698 28.3851 40.2296 28.3611 40.2912C28.2569 40.4102 28.1805 40.5548 28.1521 40.7199L26.9853 47.4838C26.9237 47.8401 27.0889 48.1965 27.4032 48.3902C27.5542 48.4823 27.7256 48.5283 27.8969 48.5283C28.0825 48.5283 28.268 48.4739 28.4264 48.3663L34.2161 44.4423C34.2715 44.4047 34.3208 44.3616 34.3652 44.315C34.4675 44.2498 34.5612 44.1697 34.6327 44.0645L52.6187 17.5929C52.6545 17.5397 52.6835 17.4835 52.7069 17.4255L56.0988 12.4421C56.2344 12.243 56.2831 12.0008 56.2338 11.7671ZM29.7978 42.0484L32.2282 43.6017L29.1722 45.6728L29.7978 42.0484ZM33.5978 42.3288L30.5048 40.3522L47.4732 15.3777L50.5662 17.3549L33.5978 42.3288ZM51.566 15.8459L48.4742 13.8692L50.9496 10.2209L54.0463 12.2017L51.566 15.8459Z" fill="black"/>
<path d="M29.3669 20.7085C29.8779 20.7085 30.2915 20.3073 30.2915 19.8117C30.2915 19.316 29.8779 18.9148 29.3669 18.9148H12.1662C11.6552 18.9148 11.2416 19.316 11.2416 19.8117C11.2416 20.3073 11.6552 20.7085 12.1662 20.7085H29.3669Z" fill="black"/>
<path d="M12.3814 28.096H29.5778C30.0887 28.096 30.5023 27.6948 30.5023 27.1992C30.5023 26.7035 30.0887 26.3024 29.5778 26.3024H12.3814C11.8704 26.3024 11.4568 26.7035 11.4568 27.1992C11.4568 27.6948 11.8704 28.096 12.3814 28.096Z" fill="black"/>
</svg>
