<svg width="63" height="60" viewBox="0 0 63 60" fill="none" xmlns="http://www.w3.org/2000/svg">
<path d="M32.5783 31.9512C20.2156 31.9512 10.1575 42.0728 10.1575 54.5131C10.1575 55.0082 10.5711 55.41 11.082 55.41H54.0746C54.585 55.41 54.9992 55.0082 54.9992 54.5131C54.9992 42.0722 44.9417 31.9512 32.5783 31.9512ZM12.0257 53.6163C12.4923 42.5793 21.5328 33.7448 32.5783 33.7448C43.6239 33.7448 52.6643 42.5793 53.1315 53.6163H12.0257Z" fill="#D9D9D9"/>
<path d="M32.1913 29.4867C39.3215 29.4867 45.1223 23.6632 45.1223 16.5047C45.1223 9.34615 39.3222 3.52271 32.1913 3.52271C25.0603 3.52271 19.2596 9.34675 19.2596 16.5047C19.2596 23.6626 25.0603 29.4867 32.1913 29.4867ZM32.1913 5.31637C38.3021 5.31637 43.2732 10.3357 43.2732 16.5047C43.2732 22.6737 38.3021 27.693 32.1913 27.693C26.0798 27.693 21.1087 22.6737 21.1087 16.5047C21.1087 10.3357 26.0805 5.31637 32.1913 5.31637Z" fill="#D9D9D9"/>
</svg>
