<?xml version="1.0" encoding="utf-8"?>
<!-- Generator: Adobe Illustrator 25.2.0, SVG Export Plug-In . SVG Version: 6.00 Build 0)  -->
<svg version="1.1" id="Слой_1" xmlns="http://www.w3.org/2000/svg" xmlns:xlink="http://www.w3.org/1999/xlink" x="0px" y="0px"
	 viewBox="0 0 63 60" style="enable-background:new 0 0 63 60;" xml:space="preserve">
<style type="text/css">
	.st0{stroke:#000000;stroke-miterlimit:10;}
</style>
<path class="st0" d="M32.6,32c-12.4,0-22.4,10.1-22.4,22.6c0,0.5,0.4,0.9,0.9,0.9h43c0.5,0,0.9-0.4,0.9-0.9C55,42.1,44.9,32,32.6,32
	z M12,53.6c0.5-11,9.5-19.9,20.6-19.9c11,0,20.1,8.8,20.6,19.9H12z"/>
<path class="st0" d="M32.2,29.5c7.1,0,12.9-5.8,12.9-13c0-7.2-5.8-13-12.9-13c-7.1,0-12.9,5.8-12.9,13
	C19.3,23.7,25.1,29.5,32.2,29.5z M32.2,5.3c6.1,0,11.1,5,11.1,11.2s-5,11.2-11.1,11.2c-6.1,0-11.1-5-11.1-11.2S26.1,5.3,32.2,5.3z"
	/>
</svg>
